<svg xmlns="http://www.w3.org/2000/svg" width="7.984" height="18" viewBox="0 0 7.984 18">
  <path id="person-svgrepo-com" d="M8.991,2.33a1.33,1.33,0,1,1-1.33,1.33A1.33,1.33,0,0,1,8.991,2.33Zm0-1.33a2.661,2.661,0,1,0,2.661,2.661A2.661,2.661,0,0,0,8.991,1Zm1.636,5.973H7.355A2.355,2.355,0,0,0,5,9.328V12.84A1.41,1.41,0,0,0,6.331,14.3v3.1a1.6,1.6,0,0,0,1.6,1.6h2.129a1.6,1.6,0,0,0,1.6-1.65V14.3a1.41,1.41,0,0,0,1.33-1.463V9.328a2.355,2.355,0,0,0-2.355-2.355Zm-4.3,6V9.328A1.011,1.011,0,0,1,7.355,8.3h3.273a1.011,1.011,0,0,1,1.024,1.024v3.645h-1.33v4.4a.266.266,0,0,1-.266.266H7.927a.266.266,0,0,1-.266-.266v-4.4Z" transform="translate(-4.999 -1)" fill="#f12dbc"/>
</svg>
